# xmcd
#
# Track frame offsets:
#	150
#	52689
#	107914
#	150116
#	185851
#
# Disc length: 2670 seconds
#
# Revision: 0
# Processed by: cddbd v1.5.2PL0 Copyright (c) Steve Scherf et al.
# Submitted via: audiograbber 1.83.01
#
DISCID=330a6c05
DTITLE=Grateful Dead - 94-04-04 Orlando Arena, Orlando FL
DYEAR=1900
DGENRE=
TTITLE0=Space
TTITLE1=Days Between
TTITLE2=Throwing Stones
TTITLE3=Not Fade Away
TTITLE4=I Fought The Law
EXTD=
EXTT0=
EXTT1=
EXTT2=
EXTT3=
EXTT4=
PLAYORDER=
